<?xml version="1.0" encoding="UTF-8"?>
<svg width="351px" height="389px" viewBox="0 0 351 389" version="1.1" xmlns="http://www.w3.org/2000/svg" xmlns:xlink="http://www.w3.org/1999/xlink">
    <!-- Generator: Sketch 60 (88103) - https://sketch.com -->
    <title>形状</title>
    <desc>Created with Sketch.</desc>
    <defs>
        <linearGradient x1="50.0000973%" y1="100.000859%" x2="50.0000973%" y2="-0.000755051751%" id="linearGradient-1">
            <stop stop-color="#275FE1" offset="0%"></stop>
            <stop stop-color="#275EDE" offset="23.55%"></stop>
            <stop stop-color="#265AD5" offset="39.2%"></stop>
            <stop stop-color="#2454C6" offset="52.55%"></stop>
            <stop stop-color="#224BB1" offset="64.62%"></stop>
            <stop stop-color="#1F3F95" offset="75.81%"></stop>
            <stop stop-color="#1C3174" offset="86.37%"></stop>
            <stop stop-color="#18204C" offset="96.23%"></stop>
            <stop stop-color="#16193B" offset="100%"></stop>
        </linearGradient>
    </defs>
    <g id="页面-1" stroke="none" stroke-width="1" fill="none" fill-rule="evenodd" opacity="0.5">
        <g id="画板" transform="translate(0.000000, -117.000000)" fill="url(#linearGradient-1)" fill-rule="nonzero">
            <path d="M-74.726695,472.399295 L48.5628476,504.918435 C56.9239182,507.120503 65.8166174,505.932546 73.288418,501.605675 L111.140386,479.710548 L111.140386,377.208133 L216.064571,320.166837 L306.006492,343.607275 L192.605244,407.428622 L192.605244,374.020928 L200.560343,369.356021 C202.464541,368.322594 202.677192,365.66659 200.956648,364.33376 L178.502583,348.861332 L159.731254,387.793513 C158.725993,389.773443 161.751444,392.023803 163.703971,390.971059 L168.48863,388.160525 L168.48863,426.097912 C168.48863,436.171408 179.275861,442.574791 188.129896,437.755352 L344.225766,352.772901 C354.394375,347.238756 352.770491,332.171973 341.664282,328.926819 L211.511896,290.863876 L176.656381,310.305821 L176.656381,128.731769 C176.656381,119.073575 165.617835,113.568404 157.894719,119.372979 L57.0495759,195.141513 L56.8659223,332.23958 L49.1138084,337.039703 C47.6639117,337.870307 47.6252478,339.946819 49.0364805,340.835373 L73.2110902,356.906608 L98.7196047,311.126767 C99.6572045,309.4559 97.2793741,307.302122 95.616826,308.258284 L85.4578836,314.545768 L84.452622,213.801144 C84.423624,210.246928 86.0571742,206.876219 88.8603077,204.693467 L142.786796,162.661005 C145.5416,160.516886 149.562646,162.487158 149.55298,165.973766 L149.00202,325.720299 L-77.3171769,451.981872 C-86.0262226,456.849602 -84.3830064,469.849532 -74.726695,472.399295 Z M84.4307471,391 L85,465.351526 L66.3979746,475.059999 C60.782633,477.991766 54.2796428,478.760754 48.1239933,477.23239 L-36,456.277468 L84.4307471,391 Z" id="形状"></path>
        </g>
    </g>
</svg>