<?xml version="1.0" encoding="UTF-8"?>
<svg width="26px" height="26px" viewBox="0 0 26 26" version="1.1" xmlns="http://www.w3.org/2000/svg" xmlns:xlink="http://www.w3.org/1999/xlink">
    <!-- Generator: Sketch 60 (88103) - https://sketch.com -->
    <title>medium.d3888099</title>
    <desc>Created with Sketch.</desc>
    <g id="页面-1" stroke="none" stroke-width="1" fill="none" fill-rule="evenodd">
        <g id="画板" transform="translate(-1149.000000, -3021.000000)" fill-rule="nonzero">
            <g id="medium.d3888099" transform="translate(1150.000000, 3022.000000)">
                <g id="linkedin" stroke="#FFFFFF">
                    <path d="M23.9354667,11.8362198 C23.9354667,18.3729231 18.5770667,23.6724396 11.9677333,23.6724396 C5.3584,23.6724396 0,18.3729231 0,11.8362198 C0,5.29951648 5.3584,0 11.9677333,0 C18.5770667,0 23.9354667,5.29951648 23.9354667,11.8362198 Z" id="Fill-1"></path>
                </g>
                <g id="编组" transform="translate(4.000000, 4.000000)">
                    <rect id="矩形" fill="#000000" opacity="0" x="0" y="0" width="16" height="16"></rect>
                    <path d="M13.0421875,4.371875 L14,3.4515625 L14,3.25 L10.6828125,3.25 L8.31875,9.1625 L5.6296875,3.25 L2.1515625,3.25 L2.1515625,3.4515625 L3.2703125,4.8046875 C3.3796875,4.9046875 3.4359375,5.0515625 3.421875,5.1984375 L3.421875,10.515625 C3.45625,10.7078125 3.3953125,10.903125 3.2609375,11.0421875 L2,12.578125 L2,12.7765625 L5.571875,12.7765625 L5.571875,12.575 L4.3125,11.04375 C4.1765625,10.9046875 4.1109375,10.7109375 4.1390625,10.5171875 L4.1390625,5.9171875 L7.275,12.7796875 L7.6390625,12.7796875 L10.3359375,5.9171875 L10.3359375,11.384375 C10.3359375,11.528125 10.3359375,11.5578125 10.2421875,11.653125 L9.271875,12.5953125 L9.271875,12.796875 L13.978125,12.796875 L13.978125,12.5953125 L13.0421875,11.675 C12.9609375,11.6125 12.91875,11.5078125 12.9359375,11.40625 L12.9359375,4.640625 C12.91875,4.5390625 12.9609375,4.434375 13.0421875,4.371875 L13.0421875,4.371875 Z" id="路径" fill="#FFFFFF"></path>
                </g>
            </g>
        </g>
    </g>
</svg>