<?xml version="1.0" encoding="UTF-8"?>
<svg width="334px" height="340px" viewBox="0 0 334 340" version="1.1" xmlns="http://www.w3.org/2000/svg" xmlns:xlink="http://www.w3.org/1999/xlink">
    <!-- Generator: Sketch 60 (88103) - https://sketch.com -->
    <title>形状</title>
    <desc>Created with Sketch.</desc>
    <defs>
        <linearGradient x1="49.9999027%" y1="99.9990916%" x2="49.9999027%" y2="-3.93126898e-05%" id="linearGradient-1">
            <stop stop-color="#2775E1" offset="0%"></stop>
            <stop stop-color="#343B9C" offset="0.0493883054%"></stop>
            <stop stop-color="#3F38BD" offset="59.4296821%"></stop>
            <stop stop-color="#4126F6" offset="85.3980742%"></stop>
            <stop stop-color="#4223FD" offset="100%"></stop>
        </linearGradient>
    </defs>
    <g id="页面-1" stroke="none" stroke-width="1" fill="none" fill-rule="evenodd" fill-opacity="0.64">
        <g id="画板" transform="translate(-946.000000, -117.000000)" fill="url(#linearGradient-1)" fill-rule="nonzero">
            <path d="M1317.77516,146.367496 L1210.10986,117.945303 C1202.80838,116.020664 1195.04263,117.058956 1188.51772,120.840703 L1155.46266,139.977357 L1155.46266,229.565933 L1063.83532,279.42084 L985.291566,258.933562 L1084.32169,203.152793 L1084.32169,232.351594 L1077.37472,236.428791 C1075.71184,237.33202 1075.52614,239.653405 1077.02864,240.818318 L1096.63715,254.341441 L1113.02962,220.314158 C1113.90749,218.583671 1111.26544,216.616825 1109.56036,217.536938 L1105.38205,219.993385 L1105.38205,186.835567 C1105.38205,178.031187 1095.96186,172.434539 1088.22988,176.646797 L951.915748,250.922674 C943.035788,255.759596 944.45388,268.92818 954.15262,271.76449 L1067.81104,305.032047 L1098.24938,288.039509 L1098.24938,446.746266 C1098.24938,455.187666 1107.88903,459.999264 1114.63341,454.925983 L1202.69864,388.703201 L1202.85902,268.877531 L1209.62872,264.682156 C1210.89488,263.956195 1210.92864,262.141294 1209.69625,261.364686 L1188.58525,247.318196 L1166.30938,287.32199 C1165.4906,288.782352 1167.56709,290.664784 1169.01895,289.829086 L1177.89047,284.333734 L1178.76833,372.385976 C1178.79366,375.492411 1177.36712,378.438459 1174.91922,380.346216 L1127.82674,417.083188 C1125.42105,418.957178 1121.90958,417.235133 1121.91802,414.187787 L1122.39916,274.567035 L1320.03735,164.212615 C1327.64272,159.95815 1326.20774,148.596026 1317.77516,146.367496 Z M1178.49868,217 L1178,152.049242 L1194.29599,143.568277 C1199.21521,141.007193 1204.91205,140.335434 1210.3046,141.670556 L1284,159.976005 L1178.49868,217 Z" id="形状"></path>
        </g>
    </g>
</svg>