<?xml version="1.0" encoding="UTF-8"?>
<svg width="26px" height="26px" viewBox="0 0 26 26" version="1.1" xmlns="http://www.w3.org/2000/svg" xmlns:xlink="http://www.w3.org/1999/xlink">
    <!-- Generator: Sketch 60 (88103) - https://sketch.com -->
    <title>twitter (4).955fa784</title>
    <desc>Created with Sketch.</desc>
    <g id="页面-1" stroke="none" stroke-width="1" fill="none" fill-rule="evenodd">
        <g id="画板" transform="translate(-1108.000000, -3021.000000)" fill-rule="nonzero">
            <g id="twitter-(4).955fa784" transform="translate(1109.000000, 3022.000000)">
                <path d="M23.9354667,11.9003078 C23.9354667,18.4370111 18.5770667,23.7365276 11.9677333,23.7365276 C5.3584,23.7365276 0,18.4370111 0,11.9003078 C0,5.36360448 5.3584,0.064088 11.9677333,0.064088 C18.5770667,0.064088 23.9354667,5.36360448 23.9354667,11.9003078 Z" id="Fill-1" stroke="#FFFFFF" stroke-width="1.2"></path>
                <path d="M18.942667,8.23169203 C18.4668937,8.44027909 17.9544844,8.58178534 17.4178161,8.64494903 C17.9661188,8.31958259 18.3866905,7.80521472 18.5859608,7.19218418 C18.0725613,7.49257894 17.5039603,7.71144846 16.8994658,7.82920712 C16.4150286,7.31851156 15.7246375,7.00000009 14.9607268,7.00000009 C13.4938005,7.00000009 12.305605,8.17636259 12.305605,9.62594478 C12.305605,9.831594 12.3286263,10.0325916 12.3741738,10.2247757 C10.1675957,10.1148513 8.21053871,9.06946778 6.90129579,7.48009309 C6.67207308,7.8683784 6.54161911,8.31958259 6.54161911,8.80065487 C6.54161911,9.7121216 7.01046125,10.5163569 7.72214085,10.9869019 C7.28696425,10.9734368 6.87802696,10.8549437 6.51934045,10.6578632 C6.51934045,10.6693698 6.51934045,10.679897 6.51934045,10.6914036 C6.51934045,11.9632461 7.4349936,13.0247878 8.64942842,13.265936 C8.42713684,13.3261618 8.19222069,13.358723 7.9503734,13.358723 C7.77932276,13.358723 7.61297539,13.34232 7.45034113,13.3117174 C7.78897685,14.3551424 8.76948567,15.1143308 9.93168939,15.1353853 C9.02271984,15.8402236 7.87784397,16.2591114 6.63345672,16.2591114 C6.41859137,16.2591114 6.20694405,16.2476049 6,16.222878 C7.1748283,16.9678668 8.57021539,17.4029128 10.0698171,17.4029128 C14.9540432,17.4029128 17.6257503,13.4005873 17.6257503,9.93025666 C17.6257503,9.81641513 17.6227798,9.70355288 17.6180766,9.59069063 C18.1371695,9.22052203 18.586951,8.75781128 18.942667,8.23169203 Z" id="Fill-2" fill="#FFFFFF"></path>
            </g>
        </g>
    </g>
</svg>